<svg width="65" height="65" viewBox="0 0 65 65" fill="none"
    xmlns="http://www.w3.org/2000/svg">
    <path d="M14.1209 40.0311C13.8777 40.2778 13.5832 40.4679 13.2584 40.5881C12.9335 40.7084 12.5862 40.7558 12.241 40.7269C11.8958 40.6981 11.5612 40.5937 11.2608 40.4212C10.9604 40.2487 10.7016 40.0123 10.5026 39.7288L3.43177 29.6534C3.17232 29.2853 3.0234 28.8508 3.00254 28.4009C2.98168 27.9511 3.08973 27.5047 3.314 27.1142C3.53827 26.7237 3.8694 26.4054 4.26845 26.1967C4.6675 25.988 5.11785 25.8977 5.56651 25.9363L11.0045 26.3904C11.0167 26.3025 11.0339 26.2153 11.0559 26.1293C12.4945 20.681 15.6848 15.8569 20.1352 12.4003C24.5856 8.94375 30.0491 7.04648 35.6839 7.00084C41.3188 6.95521 46.8123 8.76373 51.3181 12.1478C55.8239 15.5318 59.0919 20.3036 60.6186 25.7279C62.1453 31.1522 61.8459 36.928 59.7667 42.1654C57.6875 47.4028 53.9438 51.8112 49.1123 54.7114C44.2809 57.6116 38.6299 58.8426 33.0299 58.2147C27.4299 57.5869 22.1918 55.135 18.1226 51.2369C17.8985 51.0219 17.7189 50.7648 17.5942 50.4803C17.4695 50.1959 17.402 49.8897 17.3956 49.5791C17.3892 49.2686 17.444 48.9599 17.5569 48.6705C17.6699 48.3812 17.8387 48.1169 18.0537 47.8928C18.2688 47.6687 18.5259 47.4892 18.8103 47.3644C19.0948 47.2397 19.401 47.1722 19.7115 47.1658C20.0221 47.1594 20.3308 47.2143 20.6202 47.3272C20.9095 47.4401 21.1738 47.6089 21.3979 47.824C24.7012 50.9871 28.9484 52.9829 33.4918 53.507C38.0352 54.0311 42.6253 53.0548 46.562 50.7269C50.4988 48.399 53.5661 44.8473 55.296 40.6136C57.026 36.3799 57.3237 31.6966 56.1437 27.2779C54.9638 22.8592 52.3709 18.9478 48.7606 16.1402C45.1503 13.3325 40.7208 11.7828 36.1476 11.7274C31.5744 11.672 27.1087 13.114 23.4314 15.8333C19.7542 18.5527 17.0673 22.4002 15.7807 26.789L21.2695 27.2431C21.718 27.2798 22.1467 27.4438 22.5052 27.7157C22.8637 27.9877 23.1372 28.3563 23.2934 28.7783C23.4497 29.2003 23.4822 29.6581 23.3873 30.098C23.2923 30.5379 23.0738 30.9415 22.7573 31.2614L14.1209 40.0311Z" fill="currentColor"/>
</svg>
